<?xml version="1.0" encoding="UTF-8" standalone="no"?>
<!-- Created with Inkscape (http://www.inkscape.org/) -->

<svg
   xmlns:dc="http://purl.org/dc/elements/1.1/"
   xmlns:cc="http://creativecommons.org/ns#"
   xmlns:rdf="http://www.w3.org/1999/02/22-rdf-syntax-ns#"
   xmlns:svg="http://www.w3.org/2000/svg"
   xmlns="http://www.w3.org/2000/svg"
   xmlns:sodipodi="http://sodipodi.sourceforge.net/DTD/sodipodi-0.dtd"
   xmlns:inkscape="http://www.inkscape.org/namespaces/inkscape"
   width="64px"
   height="64px"
   id="svg3894"
   version="1.1"
   inkscape:version="0.48.5 r10040"
   sodipodi:docname="dessin.svg"
   enable-background="new">
  <defs
     id="defs3896">
    <inkscape:path-effect
       effect="spiro"
       id="path-effect5321"
       is_visible="true" />
    <filter
       inkscape:collect="always"
       id="filter5265">
      <feBlend
         inkscape:collect="always"
         mode="lighten"
         in2="BackgroundImage"
         id="feBlend5267" />
    </filter>
  </defs>
  <sodipodi:namedview
     id="base"
     pagecolor="#ffffff"
     bordercolor="#666666"
     borderopacity="1.0"
     inkscape:pageopacity="0.0"
     inkscape:pageshadow="2"
     inkscape:zoom="4.9273162"
     inkscape:cx="-3.4545455"
     inkscape:cy="7.8484204"
     inkscape:current-layer="layer4"
     showgrid="true"
     inkscape:document-units="px"
     inkscape:grid-bbox="true"
     inkscape:window-width="1468"
     inkscape:window-height="1034"
     inkscape:window-x="735"
     inkscape:window-y="119"
     inkscape:window-maximized="0" />
  <metadata
     id="metadata3899">
    <rdf:RDF>
      <cc:Work
         rdf:about="">
        <dc:format>image/svg+xml</dc:format>
        <dc:type
           rdf:resource="http://purl.org/dc/dcmitype/StillImage" />
      </cc:Work>
    </rdf:RDF>
  </metadata>
  <g
     id="layer1"
     inkscape:label="background"
     inkscape:groupmode="layer"
     style="display:inline;filter:url(#filter5265)">
    <path
       sodipodi:type="arc"
       style="fill:#bf3060;fill-opacity:1;stroke:none"
       id="path3902"
       sodipodi:cx="38"
       sodipodi:cy="42.909092"
       sodipodi:rx="32"
       sodipodi:ry="32"
       d="m 70,42.909092 a 32,32 0 1 1 -64,0 32,32 0 1 1 64,0 z"
       transform="translate(-6,-10.909092)" />
    <path
       style="fill:#fd9292;fill-opacity:1"
       d=""
       id="path4653"
       inkscape:connector-curvature="0" />
  </g>
  <g
     inkscape:groupmode="layer"
     id="layer4"
     inkscape:label="straw"
     style="display:inline">
    <path
       style="fill:none;stroke:#ffffff;stroke-width:1.15233374000000000px;stroke-linecap:butt;stroke-linejoin:miter;stroke-opacity:1;display:inline"
       d="M 16.193512,7.9841449 35.041179,45.574315 16.193512,7.9841449"
       id="path5319"
       inkscape:path-effect="#path-effect5321"
       inkscape:original-d="M 16.193512,7.9841449 C 7.7885459,42.340472 35.041179,45.574315 35.041179,45.574315 z"
       inkscape:connector-curvature="0" />
  </g>
  <g
     inkscape:groupmode="layer"
     id="layer3"
     inkscape:label="lemon"
     style="display:inline">
    <g
       style="fill:#ffffff;fill-opacity:1;display:inline"
       id="g4648"
       transform="matrix(0.50268049,0,0,0.50268049,70.090471,1.0371878)">
      <path
         inkscape:connector-curvature="0"
         id="path4492"
         d="m -48.609375,26.28125 c -3.565001,0.123241 -6.792848,1.536591 -9.21875,3.8125 l 9.21875,9.25 0,-13.0625 z m 1,0 0,13.0625 9.21875,-9.21875 c -2.434694,-2.283965 -5.648547,-3.718639 -9.21875,-3.84375 z m -10.90625,4.53125 c -2.259805,2.437816 -3.68949,5.656521 -3.8125,9.21875 l 13,0 -9.1875,-9.21875 z m 20.84375,0 -9.21875,9.21875 13.03125,0 c -0.12289,-3.558747 -1.549314,-6.781764 -3.8125,-9.21875 z m -24.65625,10.21875 c 0.12301,3.562229 1.552695,6.780934 3.8125,9.21875 l 9.21875,-9.21875 -13.03125,0 z m 15.40625,0 9.21875,9.21875 c 2.271734,-2.438819 3.720594,-5.652295 3.84375,-9.21875 l -13.0625,0 z m -1.6875,0.71875 -9.21875,9.21875 c 2.425902,2.275909 5.653749,3.689259 9.21875,3.8125 l 0,-13.03125 z m 1,0 0,13.03125 c 3.570203,-0.125111 6.784056,-1.559785 9.21875,-3.84375 l -9.21875,-9.1875 z"
         style="fill:#ffffff;fill-opacity:1" />
      <path
         inkscape:connector-curvature="0"
         id="path4517"
         d="m -48.09375,23.1875 c -9.57963,0 -17.34375,7.76412 -17.34375,17.34375 0,9.57963 7.76412,17.34375 17.34375,17.34375 9.57963,0 17.34375,-7.76412 17.34375,-17.34375 0,-9.57963 -7.76412,-17.34375 -17.34375,-17.34375 z m 0,1.4375 c 8.781328,0 15.90625,7.124922 15.90625,15.90625 0,8.781328 -7.124922,15.90625 -15.90625,15.90625 C -56.875078,56.4375 -64,49.312578 -64,40.53125 -64,31.749922 -56.875078,24.625 -48.09375,24.625 z"
         style="fill:#ffffff;fill-opacity:1" />
    </g>
  </g>
  <g
     inkscape:groupmode="layer"
     id="layer2"
     inkscape:label="glass"
     style="display:inline">
    <path
       style="fill:#3c755d;fill-opacity:0;fill-rule:nonzero;stroke:none"
       d="m -80.316083,51.168276 c -0.359548,-0.159378 -0.806021,-0.522217 -0.992163,-0.806305 -0.261019,-0.398365 -0.726508,-4.005056 -2.034865,-15.766492 -1.661617,-14.93706 -1.689148,-15.264576 -1.341765,-15.961897 0.765064,-1.535754 0.123667,-1.452367 12.237233,-1.59095 12.141158,-0.138899 11.830738,-0.170581 12.521497,1.277955 0.328086,0.688004 0.281586,1.207665 -1.42513,15.926355 -1.095851,9.450598 -1.872953,15.425289 -2.051109,15.769805 -0.157755,0.305063 -0.488316,0.737099 -0.734582,0.96008 -0.428984,0.388425 -0.763814,0.407011 -7.986575,0.443327 -6.153244,0.03094 -7.658967,-0.01536 -8.192541,-0.251878 l 0,0 z m 13.488297,-1.962106 c 0.986843,-0.486827 1.170551,-1.393903 2.293791,-11.325845 1.040189,-9.197587 1.058816,-9.462135 0.716948,-10.182566 -0.674048,-1.420452 -0.90528,-1.455678 -8.712583,-1.327304 -7.676379,0.126222 -7.553676,0.10269 -8.295382,1.590864 -0.34101,0.684209 -0.320294,0.974157 0.738579,10.337365 0.599186,5.298375 1.152879,9.787755 1.23043,9.976399 0.267237,0.650058 1.196353,1.074047 2.643797,1.20646 2.065244,0.18893 8.846606,-0.01007 9.38442,-0.275373 l 0,0 z"
       id="path4777"
       inkscape:connector-curvature="0" />
    <path
       style="fill:#3c755d;fill-opacity:0;fill-rule:nonzero;stroke:none"
       d="m -80.316083,51.168276 c -0.359548,-0.159378 -0.806021,-0.522217 -0.992163,-0.806305 -0.261019,-0.398365 -0.726508,-4.005056 -2.034865,-15.766492 -1.661617,-14.93706 -1.689148,-15.264576 -1.341765,-15.961897 0.765064,-1.535754 0.123667,-1.452367 12.237233,-1.59095 12.141158,-0.138899 11.830738,-0.170581 12.521497,1.277955 0.328086,0.688004 0.281586,1.207665 -1.42513,15.926355 -1.095851,9.450598 -1.872953,15.425289 -2.051109,15.769805 -0.157755,0.305063 -0.488316,0.737099 -0.734582,0.96008 -0.428984,0.388425 -0.763814,0.407011 -7.986575,0.443327 -6.153244,0.03094 -7.658967,-0.01536 -8.192541,-0.251878 l 0,0 z m 13.488297,-1.962106 c 0.986843,-0.486827 1.170551,-1.393903 2.293791,-11.325845 1.040189,-9.197587 1.058816,-9.462135 0.716948,-10.182566 -0.674048,-1.420452 -0.90528,-1.455678 -8.712583,-1.327304 -7.676379,0.126222 -7.553676,0.10269 -8.295382,1.590864 -0.34101,0.684209 -0.320294,0.974157 0.738579,10.337365 0.599186,5.298375 1.152879,9.787755 1.23043,9.976399 0.267237,0.650058 1.196353,1.074047 2.643797,1.20646 2.065244,0.18893 8.846606,-0.01007 9.38442,-0.275373 l 0,0 z"
       id="path4779"
       inkscape:connector-curvature="0" />
    <path
       style="fill:#c4a000;fill-opacity:0;fill-rule:nonzero;stroke:none"
       d="m -77.122112,48.178476 c -0.277203,-0.140254 -0.575052,-0.481385 -0.661886,-0.75807 -0.08684,-0.276684 -0.610278,-4.561398 -1.163207,-9.521587 -1.153134,-10.344472 -1.171643,-9.970667 0.504732,-10.193231 0.556911,-0.07394 3.683898,-0.142434 6.94886,-0.152213 5.67832,-0.01701 5.953934,-1.4e-4 6.342195,0.388121 0.223245,0.223246 0.4059,0.561567 0.4059,0.751826 0,1.163951 -2.113227,18.519244 -2.305497,18.934347 -0.200085,0.431978 -0.415696,0.526723 -1.450896,0.637563 -2.290234,0.245216 -8.079236,0.186955 -8.620201,-0.08676 z"
       id="path4781"
       inkscape:connector-curvature="0" />
    <path
       style="fill:#c4a000;fill-opacity:0;fill-rule:nonzero;stroke:none"
       d="m -77.122112,48.178476 c -0.277203,-0.140254 -0.575052,-0.481385 -0.661886,-0.75807 -0.08684,-0.276684 -0.610278,-4.561398 -1.163207,-9.521587 -1.153134,-10.344472 -1.171643,-9.970667 0.504732,-10.193231 0.556911,-0.07394 3.683898,-0.142434 6.94886,-0.152213 5.67832,-0.01701 5.953934,-1.4e-4 6.342195,0.388121 0.223245,0.223246 0.4059,0.561567 0.4059,0.751826 0,1.163951 -2.113227,18.519244 -2.305497,18.934347 -0.200085,0.431978 -0.415696,0.526723 -1.450896,0.637563 -2.290234,0.245216 -8.079236,0.186955 -8.620201,-0.08676 z"
       id="path4783"
       inkscape:connector-curvature="0" />
    <path
       style="fill:#c4a000;fill-opacity:0;fill-rule:nonzero;stroke:none"
       d="m -80.316083,51.168276 c -0.359548,-0.159378 -0.806021,-0.522217 -0.992163,-0.806305 -0.261019,-0.398365 -0.726508,-4.005056 -2.034865,-15.766492 -1.661617,-14.93706 -1.689148,-15.264576 -1.341765,-15.961897 0.765064,-1.535754 0.123667,-1.452367 12.237233,-1.59095 12.141158,-0.138899 11.830738,-0.170581 12.521497,1.277955 0.328086,0.688004 0.281586,1.207665 -1.42513,15.926355 -1.095851,9.450598 -1.872953,15.425289 -2.051109,15.769805 -0.157755,0.305063 -0.488316,0.737099 -0.734582,0.96008 -0.428984,0.388425 -0.763814,0.407011 -7.986575,0.443327 -6.153244,0.03094 -7.658967,-0.01536 -8.192541,-0.251878 l 0,0 z m 13.488297,-1.962106 c 0.986843,-0.486827 1.170551,-1.393903 2.293791,-11.325845 1.040189,-9.197587 1.058816,-9.462135 0.716948,-10.182566 -0.674048,-1.420452 -0.90528,-1.455678 -8.712583,-1.327304 -7.676379,0.126222 -7.553676,0.10269 -8.295382,1.590864 -0.34101,0.684209 -0.320294,0.974157 0.738579,10.337365 0.599186,5.298375 1.152879,9.787755 1.23043,9.976399 0.267237,0.650058 1.196353,1.074047 2.643797,1.20646 2.065244,0.18893 8.846606,-0.01007 9.38442,-0.275373 l 0,0 z"
       id="path4785"
       inkscape:connector-curvature="0" />
    <path
       style="fill:#c4a000;fill-opacity:0;fill-rule:nonzero;stroke:none"
       d="m -80.316083,51.168276 c -0.359548,-0.159378 -0.806021,-0.522217 -0.992163,-0.806305 -0.261019,-0.398365 -0.726508,-4.005056 -2.034865,-15.766492 -1.661617,-14.93706 -1.689148,-15.264576 -1.341765,-15.961897 0.765064,-1.535754 0.123667,-1.452367 12.237233,-1.59095 12.141158,-0.138899 11.830738,-0.170581 12.521497,1.277955 0.328086,0.688004 0.281586,1.207665 -1.42513,15.926355 -1.095851,9.450598 -1.872953,15.425289 -2.051109,15.769805 -0.157755,0.305063 -0.488316,0.737099 -0.734582,0.96008 -0.428984,0.388425 -0.763814,0.407011 -7.986575,0.443327 -6.153244,0.03094 -7.658967,-0.01536 -8.192541,-0.251878 l 0,0 z m 13.488297,-1.962106 c 0.986843,-0.486827 1.170551,-1.393903 2.293791,-11.325845 1.040189,-9.197587 1.058816,-9.462135 0.716948,-10.182566 -0.674048,-1.420452 -0.90528,-1.455678 -8.712583,-1.327304 -7.676379,0.126222 -7.553676,0.10269 -8.295382,1.590864 -0.34101,0.684209 -0.320294,0.974157 0.738579,10.337365 0.599186,5.298375 1.152879,9.787755 1.23043,9.976399 0.267237,0.650058 1.196353,1.074047 2.643797,1.20646 2.065244,0.18893 8.846606,-0.01007 9.38442,-0.275373 l 0,0 z"
       id="path4787"
       inkscape:connector-curvature="0" />
    <path
       style="fill:#c4a000;fill-opacity:0;fill-rule:nonzero;stroke:none"
       d="m -82.524879,51.731102 c -0.848656,-0.246217 -1.670439,-1.105894 -1.800554,-1.883579 -0.0586,-0.350262 -0.839967,-7.278956 -1.736364,-15.397095 l -1.629813,-14.760253 0.39538,-0.76544 c 0.738885,-1.430452 0.191645,-1.362994 11.9973,-1.478887 5.860188,-0.05753 10.945833,-0.03202 11.30143,0.05667 0.875304,0.218332 1.687385,1.217291 1.687385,2.07569 0,0.372597 -0.779574,7.37218 -1.732389,15.55463 -1.331624,11.43554 -1.814459,15.019473 -2.087145,15.492261 -0.743027,1.288276 -1.000897,1.326729 -8.763381,1.306787 -3.850981,-0.0099 -7.285313,-0.100249 -7.631849,-0.200789 z m 13.285337,-2.324113 c 0.335982,-0.28271 0.701945,-0.807843 0.813253,-1.166964 0.111308,-0.35912 0.678798,-4.871175 1.261091,-10.026791 1.170201,-10.360955 1.171031,-10.2702 -0.101025,-11.045898 -0.578856,-0.352986 -1.13145,-0.381195 -7.481113,-0.381897 -7.362527,-8.12e-4 -7.862957,0.06029 -8.493288,1.037041 -0.171903,0.26638 -0.366419,0.696481 -0.432258,0.95578 -0.06584,0.259299 0.366214,4.809601 0.960117,10.111783 1.017411,9.083127 1.107447,9.670071 1.557739,10.154891 0.262853,0.28301 0.66057,0.590112 0.883815,0.682453 0.223245,0.09234 2.659252,0.17368 5.413347,0.180755 l 5.007447,0.01287 0.610875,-0.514018 z"
       id="path4789"
       inkscape:connector-curvature="0" />
    <g
       id="g5299"
       transform="translate(78.879289,-0.60885072)"
       style="stroke:#bf3060;stroke-opacity:1">
      <path
         transform="translate(23.136327,-37.545794)"
         d="M -59.09375,59.3125 -81,59.53125 A 3.8777466,3.8777466 0 0 0 -84.84375,63.75 L -82,95.8125 a 3.8777466,3.8777466 0 0 0 3.9375,3.53125 L -61.84375,99.125 a 3.8777466,3.8777466 0 0 0 3.8125,-3.53125 l 2.84375,-32.0625 a 3.8777466,3.8777466 0 0 0 -3.90625,-4.21875 z"
         id="path5295"
         style="fill:#ffffff;fill-opacity:1;stroke:#bf3060;stroke-width:1px;stroke-linecap:butt;stroke-linejoin:miter;stroke-opacity:1"
         inkscape:original="M -59.0625 63.1875 L -80.96875 63.40625 L -78.125 95.46875 L -61.90625 95.25 L -59.0625 63.1875 z "
         inkscape:radius="3.8773589"
         sodipodi:type="inkscape:offset" />
      <path
         sodipodi:type="inkscape:offset"
         inkscape:radius="3.8773589"
         inkscape:original="M -59.0625 63.1875 L -80.96875 63.40625 L -78.125 95.46875 L -61.90625 95.25 L -59.0625 63.1875 z "
         style="fill:#bf3060;fill-opacity:1;stroke:#bf3060;stroke-width:1px;stroke-linecap:butt;stroke-linejoin:miter;stroke-opacity:1"
         id="path5297"
         d="M -59.09375,59.3125 -81,59.53125 A 3.8777466,3.8777466 0 0 0 -84.84375,63.75 L -82,95.8125 a 3.8777466,3.8777466 0 0 0 3.9375,3.53125 L -61.84375,99.125 a 3.8777466,3.8777466 0 0 0 3.8125,-3.53125 l 2.84375,-32.0625 a 3.8777466,3.8777466 0 0 0 -3.90625,-4.21875 z"
         transform="matrix(0.69576962,0,0,0.69576962,1.8354495,-11.179243)" />
    </g>
  </g>
</svg>
