<svg xmlns="http://www.w3.org/2000/svg" width="64" height="64">
  <path d="M64 32a32 32 0 11-64 0 32 32 0 1164 0z" fill="#AB1A67"/>
  <path d="M16.54 7.456l22.882 45.856L16.54 7.456" fill="none" stroke="#fff" stroke-width="2.684"/>
  <g fill="#fff">
    <path d="M45.079 12.432a9.006 9.006 0 00-5.875 2.43l5.875 5.894v-8.324zm.637 0v8.324l5.875-5.874a9.01 9.01 0 00-5.875-2.45zm-6.95 2.888a9.077 9.077 0 00-2.43 5.874h8.285l-5.855-5.874zm13.283 0l-5.875 5.874h8.304a9.07 9.07 0 00-2.43-5.874zm-15.713 6.512a9.077 9.077 0 002.43 5.874l5.875-5.874h-8.305zm9.818 0l5.875 5.874a9.054 9.054 0 002.45-5.874h-8.325zm-1.075.458l-5.875 5.874a9.006 9.006 0 005.875 2.43V22.29zm.637 0v8.304a9.01 9.01 0 005.875-2.45l-5.875-5.854z"/>
    <path d="M45.407 10.46c-6.104 0-11.052 4.948-11.052 11.053s4.948 11.052 11.052 11.052c6.105 0 11.053-4.947 11.053-11.052 0-6.105-4.948-11.052-11.053-11.052zm0 .917c5.596 0 10.137 4.54 10.137 10.136 0 5.596-4.54 10.136-10.137 10.136-5.596 0-10.136-4.54-10.136-10.136 0-5.596 4.54-10.136 10.136-10.136z"/>
  </g>
  <g stroke="#AB1A67">
    <path d="M42.922 21.158l-21.906.219a3.878 3.878 0 00-3.844 4.218l2.844 32.063a3.878 3.878 0 003.937 3.531l16.219-.219a3.878 3.878 0 003.812-3.53l2.844-32.063a3.878 3.878 0 00-3.906-4.22z" fill="#fff"/>
    <path d="M39.6 29.48l-15.243.152a2.698 2.698 0 00-2.674 2.935l1.979 22.308a2.698 2.698 0 002.74 2.457l11.284-.152a2.698 2.698 0 002.652-2.457l1.979-22.308a2.698 2.698 0 00-2.718-2.935z" fill="#AB1A67" stroke-width=".69577"/>
  </g>
</svg>