<svg version="1.0" xmlns="http://www.w3.org/2000/svg" width="700" height="700" viewBox="0 0 700 700">
  <path d="M320.5 1c-60.4 5.4-117.7 25.8-167.4 59.7-37.6 25.6-69.1 57.5-94.6 95.8-30.5 45.8-48.4 93.9-56.1 151-2.5 18.4-2.5 66.6 0 85 6.1 45.7 19.2 86.4 39.7 124C117 654 272.2 725.1 425 691.9 544.3 666 642.9 577.6 681.8 461.5c12.8-38.2 17.7-68.9 17.7-111.5 0-26.9-.9-38.3-4.6-60-13.4-78.7-55.4-152.6-116.4-205.1C525.4 39.4 463.2 11.7 393 2.5 378.3.6 335.5-.3 320.5 1zM232 151c20.9 41.8 38 76.2 38 76.5 0 .3-7.4.5-16.5.5s-16.5-.2-16.5-.4-15.5-31.7-34.5-70L168.1 88l12.7-6.5c7-3.5 12.8-6.4 12.9-6.4.2-.1 17.4 34.1 38.3 75.9zm288.8-34.1c33.7 6.3 66 30.6 82.5 62 14.9 28.2 18 63.6 8.2 93.6-7.7 23.6-22.5 44.2-42.8 59.6-13.9 10.5-36.7 20.2-52.4 22.4l-5.3.7v-2.9c0-6.4.4-6.6 11.9-9.4 11.9-2.9 26.3-9.2 36.2-16 15.9-10.8 31.7-30 39.3-47.7 24.2-56.5-1.7-121.4-58.2-145.8-16.7-7.2-36.4-10.3-53.9-8.4-27 2.9-47.1 12.2-66.5 30.8-17.8 17.1-29.4 39.3-32.8 63l-1.2 8.2H376l.6-5.8c1.6-14.3 8-33.6 15.3-46.1 12.8-21.9 34.1-40.8 57-50.7 21.1-9.2 48-11.9 71.9-7.5zM493 181.2v45.3l-32-32-32.1-32 3.3-2.8c15.4-13.3 38.6-22.7 58.1-23.6l2.7-.1v45.2zm25.7-42.6c13.8 3.1 31.4 11.8 41.6 20.6l3.7 3.3-32 32-32 32V135.8l6.3.7c3.4.4 9 1.3 12.4 2.1zm-64.2 59.5c23 23 29.3 29.8 27 29.2-1.6-.4-21.2-.8-43.3-.8h-40.4l.7-5.3c1.1-9.1 4.4-19.3 9.5-29.7 4.5-9.1 14.2-23.5 15.8-23.5.4 0 14.2 13.5 30.7 30.1zm121.2-22.5c10.2 13.3 17.8 32.7 19.7 50.1l.7 6.3H551c-24.7 0-45-.3-45-.7 0-1.4 62.5-63.3 63.5-63 .5.2 3.3 3.5 6.2 7.3zm-94.8 63.3c13.2 4.1 23.4 15.9 25.5 29.6.4 2.3-5.9 78.5-15.4 184.4l-16 180.5-2.8 6c-3.6 7.5-6.9 11.5-12.9 15.5-9.5 6.3-6.1 6.1-107.4 7.6-56.9.8-94.5.9-97.5.4-11.9-2.2-23.3-11.6-27.4-22.6-1.8-4.9-4.2-29.3-18.1-185.2-17.4-195.8-16.8-184.6-11.3-195.8 3.3-6.8 11.8-14.5 19.2-17.4 5.6-2.2 6.8-2.3 70.2-3.1 61.1-.7 88.9-1 158.2-1.6 26.6-.2 30.2 0 35.7 1.7zm115.1.8c0 .5-.7 5.1-1.5 10.3-1.7 11.6-5.1 21.5-10.7 32.2-4.2 7.8-12.3 18.8-14.3 19.5-.6.2-15.2-13.9-32.5-31.2L505.5 239h45.3c24.8 0 45.2.3 45.2.7zm-34.8 70.6c-3.9 4.1-14.9 11.2-23.6 15.2-7.8 3.6-23.2 8.2-24.2 7.3-.3-.3.7-13.6 2.1-29.4 2.4-26.6 2.6-36.9.8-42.2-.3-.9 10.3 9.1 23.5 22.3l24.2 23.9-2.8 2.9z"/>
  <path d="M299 319.9l-40.5.6-5.5 2.7c-6.4 3.2-12.1 8.4-15.6 14.3-5.3 9.1-5.5 4.1 6.6 140 6.1 68.7 11.5 126.8 12.1 129 2.4 9 8.6 16.4 17.9 21.2l5.5 2.8 55-.3c30.3-.2 62.2-.7 71-1.1 14.5-.7 16.5-1 21.1-3.4 6.5-3.3 13.7-11.3 16.2-18 1.6-4.2 4-28.5 13.2-131.7 11-124.3 11.2-126.5 9.6-132.3-2.8-9.9-8.5-16.9-17.9-21.9l-4.2-2.3-52-.1c-28.6 0-70.2.2-92.5.5z"/>
</svg>