<?xml version="1.0" standalone="no"?>
<!DOCTYPE svg PUBLIC "-//W3C//DTD SVG 20010904//EN"
 "http://www.w3.org/TR/2001/REC-SVG-20010904/DTD/svg10.dtd">
<svg version="1.0" xmlns="http://www.w3.org/2000/svg"
 width="700.000000pt" height="700.000000pt" viewBox="0 0 700.000000 700.000000"
 preserveAspectRatio="xMidYMid meet">
<metadata>
Created by potrace 1.11, written by Peter Selinger 2001-2013
</metadata>
<g transform="translate(0.000000,700.000000) scale(0.100000,-0.100000)"
fill="#000000" stroke="none">
<path d="M3285 6994 c-203 -20 -276 -28 -375 -45 -610 -105 -1195 -376 -1665
-772 -95 -81 -310 -294 -394 -392 -468 -542 -742 -1176 -833 -1925 -17 -137
-17 -583 0 -720 69 -569 227 -1028 514 -1491 145 -236 311 -440 525 -649 204
-200 371 -332 592 -468 463 -287 922 -445 1491 -514 137 -17 583 -17 720 0
569 69 1028 227 1491 514 360 222 692 528 958 882 323 430 549 960 640 1501
38 223 46 327 46 585 0 258 -8 362 -46 585 -105 627 -382 1216 -800 1700 -84
98 -299 311 -394 392 -518 437 -1148 710 -1845 798 -117 15 -536 28 -625 19z
m-965 -1504 c209 -418 380 -762 380 -765 0 -3 -73 -5 -163 -5 l-162 0 -348
695 c-191 382 -347 697 -347 700 0 4 246 132 257 134 2 1 174 -341 383 -759z
m2831 350 c424 -60 804 -374 953 -788 85 -238 89 -544 11 -779 -80 -239 -231
-448 -429 -595 -141 -105 -368 -202 -523 -223 l-53 -7 0 39 c0 52 8 61 66 72
334 64 625 285 779 592 82 166 115 307 115 502 0 550 -407 1016 -955 1092 -85
12 -266 7 -355 -10 -452 -87 -806 -446 -885 -899 -8 -49 -15 -93 -15 -97 0 -5
-23 -9 -51 -9 l-51 0 7 48 c32 225 100 403 215 563 271 380 702 564 1171 499z
m-221 -652 l0 -453 -320 320 -321 320 33 28 c91 79 215 148 331 187 73 24 191
48 245 49 l32 1 0 -452z m201 437 c106 -18 213 -55 298 -101 67 -36 211 -141
211 -153 0 -3 -144 -150 -320 -326 l-320 -320 0 458 0 457 24 0 c13 0 61 -7
107 -15z m-582 -609 l304 -304 -54 15 c-44 12 -122 14 -437 10 l-384 -4 7 56
c16 128 82 298 158 411 37 54 90 120 97 120 3 0 142 -137 309 -304z m1194 247
c105 -131 178 -301 203 -468 8 -49 14 -96 14 -102 0 -10 -97 -13 -450 -13
-247 0 -450 3 -450 7 0 10 622 633 632 633 3 0 27 -26 51 -57z m-947 -650
c133 -45 235 -158 264 -293 10 -49 -5 -241 -134 -1695 -186 -2097 -171 -1943
-200 -2009 -28 -64 -93 -138 -151 -171 -100 -59 -53 -56 -1045 -71 -641 -9
-933 -10 -975 -3 -116 20 -220 101 -276 214 -35 72 -12 -154 -205 2015 -156
1761 -151 1677 -105 1781 27 59 99 140 155 173 95 56 87 55 1056 64 1528 14
1559 14 1616 -5z m1164 -10 c0 -5 -7 -51 -15 -103 -27 -180 -104 -353 -217
-487 l-35 -41 -319 319 -319 319 453 0 c248 0 452 -3 452 -7z m-350 -710 c-63
-53 -145 -106 -226 -144 -82 -39 -239 -87 -250 -76 -3 3 6 140 21 304 26 298
26 320 -1 418 -3 11 106 -91 242 -227 l247 -246 -33 -29z"/>
<path d="M3025 3800 c-388 -5 -434 -7 -470 -24 -105 -48 -183 -137 -210 -240
-14 -58 -12 -98 95 -1305 61 -685 116 -1264 121 -1286 16 -57 35 -91 82 -142
50 -54 105 -87 172 -102 59 -13 1329 3 1380 18 123 35 226 143 248 259 4 19
56 592 117 1273 90 1020 108 1248 99 1287 -24 109 -113 213 -215 251 -53 20
-72 21 -522 19 -257 -1 -660 -5 -897 -8z"/>
</g>
</svg>
